<svg xmlns="http://www.w3.org/2000/svg" viewBox="0 0 24 24">
  <path
    d="M7.75 5.25c.32-.32.82-.4 1.23-.18l2.11 1.12c.47.25.68.82.48 1.32l-.7 1.7c-.13.31-.06.67.18.91a11.87 11.87 0 0 0 3.83 3.83c.24.24.6.31.91.18l1.7-.7c.5-.2 1.07.01 1.32.48l1.12 2.11c.22.41.14.91-.18 1.23l-.96.96c-.78.78-1.93 1.08-2.98.76-2.12-.63-4.24-2.02-6.3-4.08-2.06-2.06-3.45-4.18-4.08-6.3-.32-1.05-.02-2.2.76-2.98l.96-.96Z"
    fill="none"
    stroke="#1f1f1f"
    stroke-width="2.15"
    stroke-linecap="round"
    stroke-linejoin="round"
  />
</svg>
